<svg xmlns="http://www.w3.org/2000/svg" version="1.1" xmlns:xlink="http://www.w3.org/1999/xlink" xmlns:svgjs="http://svgjs.dev/svgjs" width="100%" height="100%" viewBox="0 0 1000 600"><rect width="1000" height="600" x="0" y="0" fill="#f96167"/><g><rect width="333.3333333333333" height="333.3333333333333" rx="13.333333333333334" ry="13.333333333333334" y="77.77777014838344" fill="#fce77d" transform="matrix(2.2499999313354513,0,0,2.2499999313354517,0,-249.99999084472722)" x="55.55555725097656"/><path d="M147.4366859252999 169.44444619596356L147.4366859252999 169.44444619596356Q166.6156063582462 169.44444619596356 180.52491926009543 177.28758298643362Q194.43423216194466 185.10008252381587 203.6866825944523 200.3267973084394L203.6866825944523 200.3267973084394L188.9195266061454 211.7851299632667Q180.73938003170986 197.69199354289086 170.47590024730567 191.84027820312608Q160.24305771598927 185.9885628633613 145.65972524620904 185.9885628633613L145.65972524620904 185.9885628633613Q133.98693181976728 185.9885628633613 126.35825580091164 189.2973861968409Q118.76021703514377 192.6062095303204 115.23693293004979 197.99836607376855Q111.71364882495584 203.42115987030448 111.71364882495584 210.253267308878L111.71364882495584 210.253267308878Q111.71364882495584 217.97385508699696 116.55433481282407 223.82557042676174Q121.3950208006923 229.67728576652652 135.97835327047255 232.98610910000608L135.97835327047255 232.98610910000608L167.50408669779165 240.03267731019403Q188.4599678098288 244.6589025264478 196.7320261435277 254.03390197130656Q205.00408447722657 263.40890141616524 205.00408447722657 277.3182143180145L205.00408447722657 277.3182143180145Q205.00408447722657 289.66502731238734 198.04942802630197 299.2544875288604Q191.12540882846508 308.8439477453336 178.53349780939016 314.14419252951836Q165.97222404340295 319.44443731370325 148.96854857968856 319.44443731370325L148.96854857968856 319.44443731370325Q133.09845148022183 319.44443731370325 121.08864826981457 315.15522188141495Q109.04820780631952 310.83536919603887 100.43913968865513 303.5743402142365Q91.86070882407851 296.2826739793463 86.34600326827925 287.2446843184532L86.34600326827925 287.2446843184532L101.78717882451717 274.65277329937817Q105.95384524445439 283.04738064542823 112.57149191141349 289.4505665407729Q119.18913857837259 295.8537524361176 128.56413802323132 299.3770365412115Q137.93913746809008 302.90032064630554 150.07148969084844 302.90032064630554L150.07148969084844 302.90032064630554Q161.34599882714912 302.90032064630554 169.61805716084802 300.1429678684059Q177.89011549454688 297.38561509050623 182.3018799391863 291.99345854705814Q186.7136443838257 286.57066475052216 186.7136443838257 278.85007697240314L186.7136443838257 278.85007697240314Q186.7136443838257 271.8035087622153 182.05678191448413 266.1662541940649Q177.4305566982303 260.55963687900237 164.65482216062867 257.6797350887516L164.65482216062867 257.6797350887516L130.4636477146733 249.95914731063263Q116.98325635605289 246.8647847487675 108.71119802235401 241.47262820531935Q100.43913968865513 236.04983440878343 96.82394382429784 228.66625641463Q93.17811070685278 221.28267842047651 93.17811070685278 212.67361030281214L93.17811070685278 212.67361030281214Q93.17811070685278 201.0008168763704 99.6732083614608 191.16625863519508Q106.19894326915657 181.3623376471075 118.42320725117825 175.38807329499167Q130.67810848628773 169.44444619596356 147.4366859252999 169.44444619596356ZM301.6339807160647 171.65032841828327L358.09843815683143 317.23855509138355L339.34843926711403 317.23855509138355L323.9072637108761 276.85865552169787L257.9452578128994 276.85865552169787L242.50408225666152 317.23855509138355L223.96854413855846 317.23855509138355L280.67809960402747 171.65032841828327L301.6339807160647 171.65032841828327ZM290.8190303760806 188.62336662890985L264.3484437082441 260.31453885430017L317.5040778155314 260.31453885430017L290.8190303760806 188.62336662890985Z " fill="#f96167" transform="matrix(2.2499999313354513,0,0,2.2499999313354517,0,-249.99999084472722)"/><path d="MNaN 244.44444105360233 " fill="#fce77d" transform="matrix(2.2499999313354513,0,0,2.2499999313354517,0,-249.99999084472722)"/></g></svg>